<?xml version="1.0" encoding="UTF-8" standalone="no"?>
<!-- Created with Inkscape (http://www.inkscape.org/) -->

<svg
   width="185.54187mm"
   height="78.357727mm"
   viewBox="0 0 185.54187 78.357727"
   version="1.1"
   id="svg1"
   xml:space="preserve"
   inkscape:export-filename="kasmos.png"
   inkscape:export-xdpi="96"
   inkscape:export-ydpi="96"
   inkscape:version="1.4.2 (f4327f4, 2025-05-13)"
   sodipodi:docname="kasmos.svg"
   xmlns:inkscape="http://www.inkscape.org/namespaces/inkscape"
   xmlns:sodipodi="http://sodipodi.sourceforge.net/DTD/sodipodi-0.dtd"
   xmlns="http://www.w3.org/2000/svg"
   xmlns:svg="http://www.w3.org/2000/svg"><sodipodi:namedview
     id="namedview1"
     pagecolor="#ffffff"
     bordercolor="#000000"
     borderopacity="0.25"
     inkscape:showpageshadow="2"
     inkscape:pageopacity="0.0"
     inkscape:pagecheckerboard="0"
     inkscape:deskcolor="#d1d1d1"
     inkscape:document-units="mm"
     inkscape:zoom="0.82016649"
     inkscape:cx="659.01254"
     inkscape:cy="-2.4385293"
     inkscape:current-layer="svg1"
     showguides="true"><sodipodi:guide
       position="101.94068,104.81069"
       orientation="0,-1"
       id="guide1"
       inkscape:locked="false" /></sodipodi:namedview><defs
     id="defs1" /><rect
     style="display:inline;fill:#000000;stroke-width:0.11;stroke-linecap:square;stroke-linejoin:round"
     id="rect1"
     width="270.93335"
     height="203.2"
     x="-42.695732"
     y="-62.421135" /><g
     id="g1"
     transform="translate(0,50.270859)"><path
       style="fill:#ff0000"
       d="m 54.777517,66.000559 c -0.359801,-0.23796 -4.468495,-4.23019 -9.13043,-8.87162 l -8.476246,-8.43896 -3.562295,0.0742 -3.562295,0.0742 -0.07879,3.43959 c -0.09973,4.35382 0.0043,4.92311 1.007633,5.51581 1.472197,0.86965 2.002095,2.83143 1.189334,4.40314 -0.600191,1.16064 -1.401865,1.59042 -2.966625,1.59042 -1.148856,0 -1.536161,-0.12866 -2.216101,-0.73619 -1.509274,-1.34853 -1.332734,-4.30257 0.3153,-5.27608 l 0.754046,-0.44543 0.07156,-5.17167 0.07156,-5.17167 3.571875,-0.0813 c 1.964531,-0.0447 4.226718,-0.005 5.027083,0.0883 l 1.455208,0.16952 6.667735,6.63877 c 2.462558,2.45186 5.999864,5.9891 8.952572,8.79635 l 2.048605,1.9832 h 8.694189 c 4.781804,0 8.679252,-0.0893 8.660996,-0.19844 -0.01826,-0.10914 -1.373074,-1.47836 -3.010708,-3.04271 l -2.977516,-2.84427 -3.802312,-0.009 c -2.478824,-0.006 -3.999567,-0.12123 -4.369015,-0.33073 -0.311686,-0.17674 -4.218403,-3.92189 -8.681593,-8.32254 l -8.114891,-8.00118 -13.146531,-0.0686 -13.146527,-0.0686 -0.0448,-3.66764 -0.0448,-3.66763 -0.79817,-0.4854 c -1.05318,-0.64047 -1.41941,-1.38311 -1.44267,-2.92549 -0.0385,-2.543612 2.55228,-3.500801 3.67781,-3.28965 1.10559,0.20741 2.31539,1.20352 2.75723,2.2702 0.46581,1.12458 -0.005,2.58668 -1.2113,3.7579 -0.99899,0.97032 -1.0106,1.03474 -0.93061,5.16344 l 0.0218,1.12448 h 12.227694 12.227697 l 8.61351,-8.59896 8.61351,-8.59896 h 4.099907 4.099908 l 3.113743,-3.12188 c 1.712559,-1.71703 3.030307,-3.20531 2.928329,-3.30729 -0.101978,-0.10198 -4.099696,-0.18541 -8.883818,-0.18541 h -8.698405 l -8.996505,8.99583 -8.996504,8.99583 h -4.982087 -4.982086 l -0.165364,-0.82682 c -0.09095,-0.45475 -0.165365,-3.30612 -0.165365,-6.33638 v -5.50956 l 2.248958,-2.36327 c 1.980163,-2.08081 2.248959,-2.47874 2.248959,-3.32941 0,-2.89923 2.617591,-4.70868 5.01686,-3.46797 2.530472,1.30856 2.506529,4.53523 -0.04344,5.85387 -0.594891,0.30763 -1.184773,0.36947 -2.295055,0.24061 l -1.494369,-0.17344 -1.920707,1.98084 -1.920707,1.98083 0.07194,5.11546 0.07194,5.11545 h 3.762619 3.76262 l 8.862235,-8.86354 c 7.750265,-7.75141 8.987857,-8.88626 9.863422,-9.04463 0.550652,-0.0996 5.17357,-0.18754 10.273151,-0.19544 7.950508,-0.0123 9.355164,0.0439 9.855728,0.39453 1.122035,0.7859 0.765114,1.401747 -3.067002,5.22037 -3.9528,3.938882 -7.820025,7.813092 -11.931317,11.9477 -4.506836,4.51764 -8.216491,8.39248 -8.243678,8.61076 -0.02719,0.21828 -0.03533,0.58329 -0.01808,0.81113 0.01724,0.22784 5.270098,5.64142 11.673015,12.03017 6.402916,6.38875 11.641666,11.80423 11.641666,12.03439 0,1.02231 -0.320778,1.05348 -10.841962,1.05348 -9.004904,0 -10.284003,-0.051 -10.861145,-0.43266 z m -24.344698,-4.37974 c 0.689657,-0.74026 0.680985,-1.22058 -0.03581,-1.98358 -1.072163,-1.14126 -2.864297,-0.51487 -2.864297,1.00114 0,1.42062 1.894102,2.06227 2.900111,0.98244 z m 34.499811,-5.15906 c 0.100026,-0.10002 -2.845692,-3.22541 -6.54604,-6.94531 -6.384778,-6.4185 -6.736889,-6.82417 -6.904048,-7.95407 -0.102164,-0.69057 -0.05162,-1.52399 0.120342,-1.98437 0.167909,-0.44953 3.297816,-3.80132 7.217342,-7.72898 3.806472,-3.81437 6.864326,-6.99175 6.795231,-7.06084 -0.06909,-0.0691 -1.226189,-0.16059 -2.57132,-0.20332 l -2.445692,-0.0777 -8.066201,8.06295 c -4.436411,4.43462 -8.066202,8.19077 -8.066202,8.34698 0,0.15622 3.482578,3.75744 7.739062,8.00271 l 7.739062,7.71869 2.403299,0.003 c 1.321814,10e-4 2.485138,-0.0793 2.585165,-0.17931 z m -47.092892,-24.179 c 0.89021,-0.70024 0.94281,-1.89538 0.1091,-2.47933 -1.2476,-0.87386 -2.58696,-0.17985 -2.58696,1.34047 0,0.68419 0.15969,0.96322 0.7276,1.27131 0.94067,0.51032 0.9323,0.51096 1.75026,-0.13245 z M 37.06147,16.477119 c 1.147001,-0.92878 0.397989,-2.96057 -1.091406,-2.96057 -1.379341,0 -2.096664,2.23866 -0.97015,3.0277 0.769057,0.53867 1.336234,0.5202 2.061556,-0.0671 z"
       id="path1-5"
       sodipodi:nodetypes="cscccscsssscccsccsscsssccsscccccsssscscccccccssscccccsscssssscccccccsssssssssssccssssscsssssscsssccccssssssssss" /><path
       d="m 67.619667,39.174589 v -7.811244 l 1.640359,-4.7e-5 1.640359,-5.9e-5 v 3.436953 c 0,1.890323 0.105455,3.433835 0.23434,3.430044 0.128885,-0.0035 1.78097,-1.549452 3.671293,-3.434791 l 3.436941,-3.427872 2.029317,-0.0024 2.02934,-0.0024 -3.824541,3.824541 -3.82454,3.824552 3.977858,3.986703 3.977835,3.986703 h -1.992696 -1.992697 l -3.783113,-3.671293 -3.783102,-3.671281 -0.08798,3.671281 -0.08798,3.671293 -1.630451,4.7e-5 -1.630451,4.8e-5 z m 16.403602,7.623584 c 0,-0.182214 3.508232,-8.124055 5.748578,-13.013448 l 1.10955,-2.421486 h 1.682884 1.682884 l 1.185188,2.577709 c 1.585789,3.448986 5.303677,11.813499 5.555167,12.498004 0.17576,0.478364 -0.0118,0.546786 -1.499086,0.546786 h -1.699983 l -0.672069,-1.562254 -0.672058,-1.562253 h -3.805138 -3.805149 l -0.660025,1.562253 -0.660035,1.562254 h -1.745354 c -0.959941,0 -1.745354,-0.08443 -1.745354,-0.187565 z m 9.924818,-5.937359 0.94186,-0.188379 -0.952996,-2.389329 c -0.524149,-1.314144 -1.04466,-2.496568 -1.156705,-2.627614 -0.164288,-0.192158 -0.927406,1.404731 -2.455909,5.139227 -0.121457,0.296763 2.25382,0.340079 3.62375,0.06613 z m 9.134633,4.582817 v -1.5824 h 4.66443 c 3.8238,0 4.75293,-0.08845 5.15543,-0.490988 0.53312,-0.533123 0.58219,-0.855312 0.29406,-1.930498 -0.18143,-0.676982 -0.32042,-0.703009 -3.75518,-0.703009 -4.13094,0 -5.40886,-0.38917 -6.35073,-1.934005 -0.83938,-1.376756 -0.8598,-4.120819 -0.0399,-5.364415 1.2574,-1.907198 1.85769,-2.070755 7.60882,-2.07301 l 5.23354,-0.0024 v 1.562253 1.562254 h -4.39484 c -4.23529,0 -5.42441,0.21097 -5.987,1.062231 -0.27621,0.417949 0.0248,1.507707 0.50366,1.823141 0.19165,0.126251 2.05188,0.231707 4.13382,0.23434 3.36138,0.0047 3.87829,0.07782 4.61488,0.657273 2.32807,1.831253 2.35356,5.657706 0.0518,7.783657 -0.82469,0.761724 -0.98092,0.783559 -6.28927,0.879379 l -5.44356,0.09825 z m 16.17975,-6.269373 -0.0886,-7.81148 1.75806,2.37e-4 1.75807,2.24e-4 2.60989,4.374303 c 1.43545,2.405862 2.68305,4.372023 2.77245,4.369248 0.0894,-0.0024 1.29281,-1.93606 2.67422,-4.296185 l 2.51165,-4.291143 1.78453,-0.09365 1.78454,-0.09377 v 7.826843 7.826844 h -1.73129 -1.73129 l 0.0909,-4.817039 c 0.0499,-2.649378 0.0207,-4.750175 -0.0653,-4.668432 -0.086,0.08172 -1.07846,1.722149 -2.20563,3.645348 -1.95742,3.339823 -2.09969,3.501006 -3.17011,3.591783 l -1.12073,0.09506 -2.14152,-3.843435 -2.14154,-3.843435 -0.0861,4.920085 -0.0861,4.920085 h -1.54385 -1.54386 z"
       style="fill:#ffffff;stroke-width:0.999999"
       id="path1-1-2"
       sodipodi:nodetypes="ccccscsccccccccccccccccsscccssscccccccssccsssccccscssssccccsssccssccccccccscccccccccsccccccccc" /><path
       d="m 141.66937,46.402635 c -1.9744,-1.20381 -2.25992,-2.11214 -2.26124,-7.19361 -0.001,-4.29437 0.0394,-4.59587 0.76088,-5.65756 1.30978,-1.92752 2.34067,-2.20715 7.71336,-2.09226 l 4.69395,0.10038 1.22656,1.31582 1.22658,1.31581 -0.001,4.77696 c -0.001,4.21545 -0.0742,4.89667 -0.62204,5.79528 -1.20377,1.97434 -2.11254,2.26007 -7.18804,2.26007 -3.9708,0 -4.65633,-0.0768 -5.54884,-0.62088 z m 9.46867,-3.26821 c 0.71884,-0.71885 0.76692,-0.97683 0.76692,-4.11535 0,-4.51864 0.0279,-4.49122 -4.55627,-4.49122 -3.4328,0 -3.53849,0.0209 -4.16965,0.82327 -0.56207,0.71455 -0.64758,1.25793 -0.64758,4.11535 0,4.43788 -0.004,4.43487 4.43693,4.43487 3.19617,0 3.44928,-0.0465 4.16965,-0.76692 z m 6.70348,2.32917 v -1.56225 h 4.98148 c 4.68472,0 5.00849,-0.0386 5.43486,-0.64728 0.29531,-0.42162 0.37566,-0.93906 0.23047,-1.48414 l -0.22291,-0.83685 -4.04026,-0.15623 c -4.24782,-0.16425 -4.95448,-0.36976 -6.04696,-1.75863 -0.91104,-1.1582 -0.90789,-4.15416 0.006,-5.63275 1.10983,-1.79574 1.8253,-1.98211 7.60934,-1.98211 h 5.17093 v 1.56225 1.56225 h -4.61722 c -4.96789,0 -6.00607,0.28065 -6.00607,1.62363 0,1.22136 0.84752,1.48035 4.87894,1.49093 3.35681,0.008 3.8793,0.0838 4.61489,0.66243 1.807,1.42138 2.34153,4.47342 1.13115,6.4586 -1.23778,2.03012 -2.03976,2.25993 -7.89105,2.26124 l -5.23353,0.001 z"
       style="fill:#006bff;fill-opacity:1;stroke-width:0.999999"
       id="path1" /></g></svg>
